# xmcd
#
# Track frame offsets: 
#        150
#        9901
#        29045
#        51719
#        71381
#        97093
#        119036
#        130145
#        141282
#        157711
#        190518
#        211046
#        226715
#        238999
#        255744
#        274693
#
# Disc length: 3862 seconds
#
# Revision: 20
# Processed by: cddbd v1.5.2PL0 Copyright (c) Steve Scherf et al.
# Submitted via: ExactAudioCopyFreeDBPlugin 1.0
#
DISCID=e10f1410
DTITLE=Tom Waits - Orphans [Disc 1 - Brawlers]
DYEAR=2006
DGENRE=Rock
TTITLE0=Lie To Me
TTITLE1=LowDown
TTITLE2=2:19
TTITLE3=Fish In The Jailhouse
TTITLE4=Bottom Of The World
TTITLE5=Lucinda
TTITLE6=Ain't Goin' Down To The Well
TTITLE7=Lord I've Been Changed
TTITLE8=Puttin' On The Dog
TTITLE9=Road To Peace
TTITLE10=All The Time
TTITLE11=The Return Of Jackie And Judy
TTITLE12=Walk Away
TTITLE13=Sea Of Love
TTITLE14=Buzz Fledderjohn
TTITLE15=Rains On Me
EXTD=
EXTT0=
EXTT1=
EXTT2=
EXTT3=
EXTT4=
EXTT5=
EXTT6=
EXTT7=
EXTT8=
EXTT9=
EXTT10=
EXTT11=
EXTT12=
EXTT13=
EXTT14=
EXTT15=
PLAYORDER=
